<mxfile host="app.diagrams.net" modified="2024-03-05T15:40:12.725Z" agent="Mozilla/5.0 (Macintosh; Intel Mac OS X 10.15; rv:123.0) Gecko/20100101 Firefox/123.0" version="24.0.1" etag="NSJ0RxNamffc5P2WMGWb" type="github">
  <diagram name="Page-1" id="Z3jLY7oMZGaRkjrSWirH">
    <mxGraphModel>
      <root>
        <mxCell id="0" />
        <mxCell id="1" parent="0" />
      </root>
    </mxGraphModel>
  </diagram>
</mxfile>
